<?xml version="1.0" encoding="utf-8"?>
<!-- Generator: Adobe Illustrator 16.0.0, SVG Export Plug-In . SVG Version: 6.00 Build 0)  -->
<!DOCTYPE svg PUBLIC "-//W3C//DTD SVG 1.1//EN" "http://www.w3.org/Graphics/SVG/1.1/DTD/svg11.dtd">
<svg version="1.1"
	 id="svg2" xmlns:dc="http://purl.org/dc/elements/1.1/" xmlns:cc="http://creativecommons.org/ns#" xmlns:rdf="http://www.w3.org/1999/02/22-rdf-syntax-ns#" xmlns:svg="http://www.w3.org/2000/svg" xmlns:sodipodi="http://sodipodi.sourceforge.net/DTD/sodipodi-0.dtd" xmlns:inkscape="http://www.inkscape.org/namespaces/inkscape" inkscape:version="0.91 r13725" sodipodi:docname="JuliaDiffEq_icon.svg" inkscape:export-filename="/home/pawel/logo.svg.png" inkscape:export-xdpi="123.59" inkscape:export-ydpi="123.59"
	 xmlns="http://www.w3.org/2000/svg" xmlns:xlink="http://www.w3.org/1999/xlink" x="0px" y="0px" width="231.84px"
	 height="231.84px" viewBox="0 0 231.84 231.84" enable-background="new 0 0 231.84 231.84" xml:space="preserve">
<sodipodi:namedview  id="base" pagecolor="#ffffff" bordercolor="#666666" borderopacity="1.0" inkscape:zoom="0.5" inkscape:cx="42.427122" inkscape:cy="-108.60256" showgrid="false" fit-margin-top="0" fit-margin-left="0" inkscape:document-units="px" inkscape:pageopacity="0.0" inkscape:current-layer="g3365" inkscape:pageshadow="2" inkscape:window-width="960" inkscape:window-height="1009" inkscape:window-x="0" inkscape:window-y="34" inkscape:window-maximized="0" fit-margin-right="0" fit-margin-bottom="0">
	</sodipodi:namedview>
<g id="layer1" transform="translate(-177.45675,-547.25472)" inkscape:label="Layer 1" inkscape:groupmode="layer">
	<g id="g3363" transform="matrix(1.25,0,0,-1.25,-32.675374,1082.4742)" inkscape:label="test2">
		<g id="g7309" transform="matrix(-0.08094155,0.99671885,-0.99671885,-0.08094155,586.29878,42.110385)">
			<g id="g3365">
				<path id="path4263" inkscape:connector-curvature="0" fill="#6BAB5B" stroke="#3B972F" stroke-width="4.84" d="M228.5,267.681
					l4.224-14.126l3.33-7.366l3.455-6.426l5.166-6.206l5.78-5.737l6.138-4.457l6.869-3.176l9.442-2.369l9.185-0.617l9.174,0.779
					l11.01,3.224l9.167,4.167l9.646,6.84l8.901,8.133l8.042,10.352l7.05,13.035l5.207,14.329l3.243,14.916l2.119,20.756l1.065,9.328
					l1.934,5.825l3.173,3.372l4.032,1.616l4.777-0.018l6.253-1.892l6.502-3.523l5.033-4.102l4.431-5.5l4.073-6.898l1.981-6.305
					l0.642-6.538l-0.343-6.413l-2.656-9.204l-3.036-5.939l-4.506-6.629l-5.732-5.347l-7.563-6.733l-7.325-4.988l-12.943-8.697
					l-17.101-10.9l-14.899-9.622l-13.928-6.48l-11.866-3.921l-9.91-1.36l-8.447-0.084l-8.7,1.084l-10.295,3.302l-7.362,3.645
					l-7.002,5.278l-7.253,7.493l-4.803,6.784l-3.206,5.728l-2.719,6.076L228.5,267.681"/>
				<path id="path4259" inkscape:connector-curvature="0" fill="#D66661" stroke="#C93D39" stroke-width="4.84" d="M384.373,257.847
					l7.733,7.872l6.143,8.38l3.849,8.73l2.43,8.732l0.5,7.566l-0.917,8.913l-2.858,8.081l-4.443,8.087l-5.677,6.414l-5.668,5.232
					l-7.784,5.243l-7.251,3.391l-8.483,3.228l-9.894,2.56l-8.65,1.043l-12.183,0.383l-14.29-1.458l-12.691-2.979l-15.335-5.153
					l-19.026-8.163l-6.168-2.331l-4.937-1.16l-4.763,0.187l-4.601,3.046l-2.85,5.392l-1.256,6.056l0.325,7.23l2.26,8.061
					l3.506,6.711l5.266,5.866l4.928,3.849l6.162,3.507l7.404,2.663l8.995,1.307l6.352-0.024l9.181-1.548l12.198-3.744l14.138-5.94
					l32.537-14.921l15.561-7.965l10.97-7.103l7.618-6.921l6.56-7.256l5.686-9.774l3.577-11.113l0.756-12.276l-2.599-12.599
					l-5.771-12.927l-9.48-12.572L384.373,257.847"/>
				<path id="path4255" inkscape:connector-curvature="0" fill="#AA7DC0" stroke="#945BB0" stroke-width="4.84" d="M314.348,389.961
					l-8.826,2.135l-9.431,1.373l-9.422,0.419l-6.605-0.358l-6.012-1.121l-8.61-2.83l-7.197-3.603l-8.398-5.888l-5.59-5.513
					l-4.98-7.429l-3.182-6.101l-2.775-7.054l-2.163-10.493l-0.758-10.881l0.662-15.088l2.53-30.371l0.851-12.032l1.441-10.318
					l2.041-8.217l3.036-8.033l3.838-6.505l4.229-5.556l6.24-5.749l6.629-4.037l7.026-2.507l7.226-1.559l7.01,0.354l6.811,0.928
					l7.004,2.839l5.799,3.417l4.19,4.181l2.189,4.384l0.187,2.865l-1.215,3.827l-3.027,3.828l-5.624,4.029l-18.093,12.484
					l-15.283,12.665l-8.852,9.005l-4.237,5.934l-6.453,9.958l-4.854,10.712l-3.254,11.278l-1.651,11.654l0.567,8.589l1.57,8.395
					l3.768,9.723l5.379,8.189l7.785,7.608l10.398,6.073l11.412,3.2l11.018,0.914l10.429-0.997l11.031-2.334l9.232-2.898
					L314.348,389.961"/>
			</g>
			<g id="g4325">
			</g>
		</g>
		<g id="g4529">
		</g>
	</g>
</g>
</svg>
